<svg width="71" height="71" viewBox="0 0 71 71" fill="none" xmlns="http://www.w3.org/2000/svg">
<g clip-path="url(#clip0_297_38771)">
<path d="M20.9495 13.4177H18.9663V30.2212H20.9495V13.4177Z" fill="url(#paint0_linear_297_38771)"/>
<path d="M26.8989 18.36H24.9158V20.3369H26.8989V18.36Z" fill="url(#paint1_linear_297_38771)"/>
<path d="M24.9157 23.3021H26.8988V29.2328H29.8736C30.2603 29.2328 30.6172 29.4601 30.7759 29.8159C30.9345 30.1718 30.875 30.5869 30.6172 30.8736L23.6762 38.7811C23.2994 39.2061 22.5657 39.2061 22.179 38.7811L15.2479 30.8736C14.9901 30.577 14.9306 30.1718 15.0892 29.8159C15.2479 29.4601 15.6048 29.2328 15.9916 29.2328H21.941V31.2096H18.173L22.9326 36.6263L27.6921 31.2096H25.9073C25.3619 31.2096 24.9157 30.7648 24.9157 30.2212V23.3021Z" fill="url(#paint2_linear_297_38771)"/>
<path d="M41.7725 45.028C41.2271 45.028 40.7809 44.5832 40.7809 44.0396V14.3864C40.7809 13.8427 41.2271 13.3979 41.7725 13.3979C42.3178 13.3979 42.764 13.8427 42.764 14.3864V44.0396C42.764 44.5832 42.3178 45.028 41.7725 45.028Z" fill="url(#paint3_linear_297_38771)"/>
<path d="M36.8146 29.213H34.8314V31.1899H36.8146V29.213Z" fill="url(#paint4_linear_297_38771)"/>
<path d="M36.8146 34.1553H34.8314V36.1322H36.8146V34.1553Z" fill="url(#paint5_linear_297_38771)"/>
<path d="M36.8146 24.2709H34.8314V26.2478H36.8146V24.2709Z" fill="url(#paint6_linear_297_38771)"/>
<path d="M36.8145 21.3057H34.8314V15.375H31.8567C31.47 15.375 31.113 15.1477 30.9543 14.7919C30.7957 14.436 30.8552 14.0209 31.113 13.7342L38.054 5.83659C38.4308 5.41156 39.1645 5.41156 39.5513 5.83659L46.4923 13.7441C46.7501 14.0406 46.8096 14.4459 46.6509 14.8017C46.4923 15.1576 46.1353 15.3849 45.7486 15.3849H39.7992V13.408H43.5671L38.8076 7.99139L34.048 13.408H35.8329C36.3782 13.408 36.8244 13.8528 36.8244 14.3965V21.3156L36.8145 21.3057Z" fill="url(#paint7_linear_297_38771)"/>
<path d="M44.5588 64.362C39.5315 64.362 34.1176 63.0474 34.1176 60.1513C34.1176 59.6076 34.5638 59.1628 35.1091 59.1628C35.6545 59.1628 36.1007 59.6076 36.1007 60.1513C36.1007 60.8037 39.0655 62.3852 44.5588 62.3852C50.0521 62.3852 53.0169 60.8037 53.0169 60.1513C53.0169 59.6076 53.4631 59.1628 54.0085 59.1628C54.5538 59.1628 55.0001 59.6076 55.0001 60.1513C55.0001 63.0474 49.5861 64.362 44.5588 64.362Z" fill="url(#paint8_linear_297_38771)"/>
<path d="M44.5588 60.4281C39.5315 60.4281 34.1176 59.1135 34.1176 56.2173C34.1176 55.6737 34.5638 55.2289 35.1091 55.2289C35.6545 55.2289 36.1007 55.6737 36.1007 56.2173C36.1007 56.8697 39.0655 58.4512 44.5588 58.4512C50.0521 58.4512 53.0169 56.8697 53.0169 56.2173C53.0169 55.6737 53.4631 55.2289 54.0085 55.2289C54.5538 55.2289 55.0001 55.6737 55.0001 56.2173C55.0001 59.1135 49.5861 60.4281 44.5588 60.4281Z" fill="url(#paint9_linear_297_38771)"/>
<path d="M44.5588 64.461C39.5315 64.461 34.1176 63.1464 34.1176 60.2503V56.2273C34.1176 55.6837 34.5638 55.2389 35.1091 55.2389C35.6545 55.2389 36.1007 55.6837 36.1007 56.2273V60.2503C36.1007 60.9027 39.0655 62.4842 44.5588 62.4842C50.0521 62.4842 53.0169 60.9027 53.0169 60.2503V56.2273C53.0169 55.6837 53.4631 55.2389 54.0085 55.2389C54.5538 55.2389 55.0001 55.6837 55.0001 56.2273V60.2503C55.0001 63.1464 49.5861 64.461 44.5588 64.461Z" fill="url(#paint10_linear_297_38771)"/>
<path d="M44.5588 56.4446C39.5315 56.4446 34.1176 55.1299 34.1176 52.2338C34.1176 51.6902 34.5638 51.2454 35.1091 51.2454C35.6545 51.2454 36.1007 51.6902 36.1007 52.2338C36.1007 52.8862 39.0655 54.4677 44.5588 54.4677C50.0521 54.4677 53.0169 52.8862 53.0169 52.2338C53.0169 51.6902 53.4631 51.2454 54.0085 51.2454C54.5538 51.2454 55.0001 51.6902 55.0001 52.2338C55.0001 55.1299 49.5861 56.4446 44.5588 56.4446Z" fill="url(#paint11_linear_297_38771)"/>
<path d="M44.5588 60.4675C39.5315 60.4675 34.1176 59.1529 34.1176 56.2568V52.2338C34.1176 51.6902 34.5638 51.2454 35.1091 51.2454C35.6545 51.2454 36.1007 51.6902 36.1007 52.2338V56.2568C36.1007 56.9091 39.0655 58.4906 44.5588 58.4906C50.0521 58.4906 53.0169 56.9091 53.0169 56.2568V52.2338C53.0169 51.6902 53.4631 51.2454 54.0085 51.2454C54.5538 51.2454 55.0001 51.6902 55.0001 52.2338V56.2568C55.0001 59.1529 49.5861 60.4675 44.5588 60.4675Z" fill="url(#paint12_linear_297_38771)"/>
<path d="M44.5588 52.5205C39.5315 52.5205 34.1176 51.2059 34.1176 48.3098C34.1176 45.4136 39.5315 44.099 44.5588 44.099C49.5861 44.099 55.0001 45.4136 55.0001 48.3098C55.0001 51.2059 49.5861 52.5205 44.5588 52.5205ZM44.5588 46.0759C39.0655 46.0759 36.1007 47.6574 36.1007 48.3098C36.1007 48.9621 39.0655 50.5436 44.5588 50.5436C50.0521 50.5436 53.0169 48.9621 53.0169 48.3098C53.0169 47.6574 50.0521 46.0759 44.5588 46.0759Z" fill="url(#paint13_linear_297_38771)"/>
<path d="M44.5588 56.5434C39.5315 56.5434 34.1176 55.2288 34.1176 52.3327V48.3097C34.1176 47.7661 34.5638 47.3213 35.1091 47.3213C35.6545 47.3213 36.1007 47.7661 36.1007 48.3097V52.3327C36.1007 52.9851 39.0655 54.5666 44.5588 54.5666C50.0521 54.5666 53.0169 52.9851 53.0169 52.3327V48.3097C53.0169 47.7661 53.4631 47.3213 54.0085 47.3213C54.5538 47.3213 55.0001 47.7661 55.0001 48.3097V52.3327C55.0001 55.2288 49.5861 56.5434 44.5588 56.5434Z" fill="url(#paint14_linear_297_38771)"/>
<path d="M25.6594 64.4114C20.6321 64.4114 15.2181 63.0967 15.2181 60.2006C15.2181 59.657 15.6643 59.2122 16.2097 59.2122C16.7551 59.2122 17.2013 59.657 17.2013 60.2006C17.2013 60.853 20.1661 62.4345 25.6594 62.4345C31.1527 62.4345 34.1175 60.853 34.1175 60.2006C34.1175 59.657 34.5637 59.2122 35.1091 59.2122C35.6544 59.2122 36.1006 59.657 36.1006 60.2006C36.1006 63.0967 30.6867 64.4114 25.6594 64.4114Z" fill="url(#paint15_linear_297_38771)"/>
<path d="M25.6594 60.4774C20.6321 60.4774 15.2181 59.1628 15.2181 56.2667C15.2181 53.3705 20.6321 52.0559 25.6594 52.0559C30.6867 52.0559 36.1006 53.3705 36.1006 56.2667C36.1006 59.1628 30.6867 60.4774 25.6594 60.4774ZM25.6594 54.0328C20.1661 54.0328 17.2013 55.6143 17.2013 56.2667C17.2013 56.919 20.1661 58.5005 25.6594 58.5005C31.1527 58.5005 34.1175 56.919 34.1175 56.2667C34.1175 55.6143 31.1527 54.0328 25.6594 54.0328Z" fill="url(#paint16_linear_297_38771)"/>
<path d="M25.6594 64.5102C20.6321 64.5102 15.2181 63.1956 15.2181 60.2995V56.2666C15.2181 55.723 15.6643 55.2782 16.2097 55.2782C16.7551 55.2782 17.2013 55.723 17.2013 56.2666V60.2995C17.2013 60.9518 20.1661 62.5334 25.6594 62.5334C31.1527 62.5334 34.1175 60.9518 34.1175 60.2995V56.2666C34.1175 55.723 34.5637 55.2782 35.1091 55.2782C35.6544 55.2782 36.1006 55.723 36.1006 56.2666V60.2995C36.1006 63.1956 30.6867 64.5102 25.6594 64.5102Z" fill="url(#paint17_linear_297_38771)"/>
</g>
<defs>
<linearGradient id="paint0_linear_297_38771" x1="20.7158" y1="-6.18634" x2="17.7073" y2="-6.08166" gradientUnits="userSpaceOnUse">
<stop stop-color="#EF9933"/>
<stop offset="0.462092" stop-color="#FDC482"/>
<stop offset="1" stop-color="#C77515"/>
</linearGradient>
<linearGradient id="paint1_linear_297_38771" x1="26.6652" y1="16.0536" x2="23.8955" y2="16.8728" gradientUnits="userSpaceOnUse">
<stop stop-color="#EF9933"/>
<stop offset="0.462092" stop-color="#FDC482"/>
<stop offset="1" stop-color="#C77515"/>
</linearGradient>
<linearGradient id="paint2_linear_297_38771" x1="28.9944" y1="4.87142" x2="6.84405" y2="11.4284" gradientUnits="userSpaceOnUse">
<stop stop-color="#EF9933"/>
<stop offset="0.462092" stop-color="#FDC482"/>
<stop offset="1" stop-color="#C77515"/>
</linearGradient>
<linearGradient id="paint3_linear_297_38771" x1="42.5303" y1="-23.5038" x2="39.5193" y2="-23.4482" gradientUnits="userSpaceOnUse">
<stop stop-color="#EF9933"/>
<stop offset="0.462092" stop-color="#FDC482"/>
<stop offset="1" stop-color="#C77515"/>
</linearGradient>
<linearGradient id="paint4_linear_297_38771" x1="36.5809" y1="26.9067" x2="33.8111" y2="27.7258" gradientUnits="userSpaceOnUse">
<stop stop-color="#EF9933"/>
<stop offset="0.462092" stop-color="#FDC482"/>
<stop offset="1" stop-color="#C77515"/>
</linearGradient>
<linearGradient id="paint5_linear_297_38771" x1="36.5809" y1="31.8489" x2="33.8111" y2="32.6681" gradientUnits="userSpaceOnUse">
<stop stop-color="#EF9933"/>
<stop offset="0.462092" stop-color="#FDC482"/>
<stop offset="1" stop-color="#C77515"/>
</linearGradient>
<linearGradient id="paint6_linear_297_38771" x1="36.5809" y1="21.9645" x2="33.8111" y2="22.7837" gradientUnits="userSpaceOnUse">
<stop stop-color="#EF9933"/>
<stop offset="0.462092" stop-color="#FDC482"/>
<stop offset="1" stop-color="#C77515"/>
</linearGradient>
<linearGradient id="paint7_linear_297_38771" x1="44.8682" y1="-12.9129" x2="22.7063" y2="-6.34839" gradientUnits="userSpaceOnUse">
<stop stop-color="#EF9933"/>
<stop offset="0.462092" stop-color="#FDC482"/>
<stop offset="1" stop-color="#C77515"/>
</linearGradient>
<linearGradient id="paint8_linear_297_38771" x1="52.5394" y1="53.0971" x2="39.3363" y2="68.7317" gradientUnits="userSpaceOnUse">
<stop stop-color="#EF9933"/>
<stop offset="0.462092" stop-color="#FDC482"/>
<stop offset="1" stop-color="#C77515"/>
</linearGradient>
<linearGradient id="paint9_linear_297_38771" x1="52.5394" y1="49.1632" x2="39.3363" y2="64.7978" gradientUnits="userSpaceOnUse">
<stop stop-color="#EF9933"/>
<stop offset="0.462092" stop-color="#FDC482"/>
<stop offset="1" stop-color="#C77515"/>
</linearGradient>
<linearGradient id="paint10_linear_297_38771" x1="52.5394" y1="44.4797" x2="30.6004" y2="59.1263" gradientUnits="userSpaceOnUse">
<stop stop-color="#EF9933"/>
<stop offset="0.462092" stop-color="#FDC482"/>
<stop offset="1" stop-color="#C77515"/>
</linearGradient>
<linearGradient id="paint11_linear_297_38771" x1="52.5394" y1="45.1796" x2="39.3364" y2="60.8143" gradientUnits="userSpaceOnUse">
<stop stop-color="#EF9933"/>
<stop offset="0.462092" stop-color="#FDC482"/>
<stop offset="1" stop-color="#C77515"/>
</linearGradient>
<linearGradient id="paint12_linear_297_38771" x1="52.5394" y1="40.4862" x2="30.6004" y2="55.1327" gradientUnits="userSpaceOnUse">
<stop stop-color="#EF9933"/>
<stop offset="0.462092" stop-color="#FDC482"/>
<stop offset="1" stop-color="#C77515"/>
</linearGradient>
<linearGradient id="paint13_linear_297_38771" x1="52.5394" y1="34.2739" x2="31.8696" y2="49.385" gradientUnits="userSpaceOnUse">
<stop stop-color="#EF9933"/>
<stop offset="0.462092" stop-color="#FDC482"/>
<stop offset="1" stop-color="#C77515"/>
</linearGradient>
<linearGradient id="paint14_linear_297_38771" x1="52.5394" y1="36.5621" x2="30.6004" y2="51.2086" gradientUnits="userSpaceOnUse">
<stop stop-color="#EF9933"/>
<stop offset="0.462092" stop-color="#FDC482"/>
<stop offset="1" stop-color="#C77515"/>
</linearGradient>
<linearGradient id="paint15_linear_297_38771" x1="33.64" y1="53.1464" x2="20.4369" y2="68.7811" gradientUnits="userSpaceOnUse">
<stop stop-color="#EF9933"/>
<stop offset="0.462092" stop-color="#FDC482"/>
<stop offset="1" stop-color="#C77515"/>
</linearGradient>
<linearGradient id="paint16_linear_297_38771" x1="33.64" y1="42.2308" x2="12.9702" y2="57.3419" gradientUnits="userSpaceOnUse">
<stop stop-color="#EF9933"/>
<stop offset="0.462092" stop-color="#FDC482"/>
<stop offset="1" stop-color="#C77515"/>
</linearGradient>
<linearGradient id="paint17_linear_297_38771" x1="33.64" y1="44.5075" x2="11.6865" y2="59.148" gradientUnits="userSpaceOnUse">
<stop stop-color="#EF9933"/>
<stop offset="0.462092" stop-color="#FDC482"/>
<stop offset="1" stop-color="#C77515"/>
</linearGradient>
<clipPath id="clip0_297_38771">
<rect width="40" height="59" fill="white" transform="translate(15 5.51025)"/>
</clipPath>
</defs>
</svg>
