<svg width="71" height="71" viewBox="0 0 71 71" fill="none" xmlns="http://www.w3.org/2000/svg">
<g clip-path="url(#clip0_297_38829)">
<path d="M31.0165 14.1298C31.0165 13.9192 30.9141 13.8139 30.8117 13.7086C30.7093 13.6032 30.5045 13.4979 30.2997 13.4979V14.667C30.7093 14.5617 31.0268 14.4563 31.0268 14.1404L31.0165 14.1298Z" fill="url(#paint0_linear_297_38829)"/>
<path d="M36.4951 31.4549C36.4951 31.6656 36.5975 31.8762 36.6999 31.9815C36.9047 32.0868 37.1095 32.1922 37.427 32.2975V30.5913C36.8023 30.6966 36.4951 31.0126 36.4951 31.4444V31.4549Z" fill="url(#paint1_linear_297_38829)"/>
<path d="M54.1701 44.8516C53.7605 44.8516 53.3406 44.9569 52.931 45.1675L47.5548 47.6109C45.4862 48.5693 43.3153 49.0959 40.9395 49.0959C38.5637 49.0959 36.4951 48.6747 34.4266 47.7163L33.3923 47.295C31.6309 46.4419 29.675 46.0206 27.8113 46.0206C22.3326 46.0206 17.3763 49.3171 15.2053 54.4146L14.0686 56.9633L23.0597 61.2182L23.7868 59.6279C24.6162 57.8164 26.3674 56.542 28.3335 56.542C29.0606 56.542 29.675 56.6473 30.4021 56.9633C32.2658 57.8164 34.3344 58.2377 36.2903 58.2377C38.3589 58.2377 40.4275 57.8164 42.281 56.858L55.2044 50.8021C55.9315 50.4862 56.4435 49.949 56.7507 49.2118C57.1603 48.2534 57.0579 47.0843 56.5459 46.2312C56.1363 45.3782 55.2044 44.8516 54.1701 44.8516Z" fill="url(#paint2_linear_297_38829)"/>
<path d="M29.8798 18.2794C32.8802 18.2794 35.3584 15.7307 35.3584 12.6448C35.3584 9.55899 32.8802 7.01025 29.8798 7.01025C26.8793 7.01025 24.4011 9.55899 24.4011 12.6448C24.4011 15.7307 26.8793 18.2794 29.8798 18.2794ZM29.3677 13.1714C29.0605 13.0661 28.7431 12.9608 28.5383 12.8555C28.3334 12.7502 28.1286 12.6448 27.9136 12.4342C27.8112 12.3289 27.6064 12.1183 27.6064 11.9076C27.504 11.697 27.504 11.4863 27.504 11.1598C27.504 10.8334 27.6064 10.5174 27.7088 10.2014C27.8112 9.88548 28.016 9.67484 28.2208 9.45367C28.4256 9.24303 28.6304 9.13771 28.9479 9.03239C29.2551 8.92707 29.4599 8.82175 29.7773 8.82175V7.86334H30.2894V8.92707C30.699 8.92707 31.1188 9.03239 31.4261 9.24303C31.8357 9.34835 32.1531 9.55899 32.3579 9.66431L31.7333 11.044C31.7333 11.044 31.6309 10.9387 31.5285 10.9387C31.4261 10.8334 31.3237 10.8334 31.2212 10.728C31.1188 10.6227 30.914 10.6227 30.7092 10.5174C30.5044 10.4121 30.402 10.4121 30.1972 10.4121V11.7918L30.5044 11.8971C30.8116 12.0024 31.1291 12.1077 31.4363 12.213C31.7435 12.3184 31.9483 12.4237 32.1634 12.6343C32.3682 12.845 32.4706 12.9503 32.573 13.2768C32.6754 13.4874 32.6754 13.8034 32.6754 14.1299C32.6754 14.5511 32.573 14.8776 32.4706 15.0883C32.3682 15.2989 32.1634 15.6149 31.9586 15.7307C31.7537 15.9413 31.5489 16.0467 31.2315 16.152C30.9243 16.2573 30.6068 16.2573 30.2996 16.2573V17.4264H29.6749V16.2573C29.2653 16.2573 28.7431 16.152 28.3334 15.9413C27.9238 15.836 27.504 15.6254 27.1968 15.4148L27.9238 14.0351C27.9238 14.0351 28.0262 14.1404 28.1286 14.2457C28.231 14.351 28.3334 14.351 28.5383 14.4563C28.7431 14.5617 28.9479 14.667 29.1629 14.667C29.3677 14.7723 29.5725 14.7723 29.89 14.8776V13.6033L29.378 13.182L29.3677 13.1714Z" fill="url(#paint3_linear_297_38829)"/>
<path d="M29.5726 33.8035C29.5726 38.3744 33.1875 42.0922 37.6318 42.0922C42.0762 42.0922 45.6911 38.3744 45.6911 33.8035C45.6911 29.2327 42.0762 25.5149 37.6318 25.5149C33.1875 25.5149 29.5726 29.2327 29.5726 33.8035ZM36.8024 34.6461C36.3928 34.5408 35.9729 34.3301 35.6657 34.2248C35.3585 34.0142 35.041 33.9089 34.8362 33.6982C34.6314 33.4876 34.4266 33.2769 34.3242 32.9505C34.2218 32.6345 34.1194 32.308 34.1194 31.992C34.1194 31.4654 34.2218 31.0336 34.3242 30.7177C34.529 30.2964 34.7338 29.9699 34.9489 29.7593C35.2561 29.4433 35.5735 29.2327 35.9831 29.1168C36.3928 29.0115 36.8126 28.9062 37.2222 28.8009V27.4212H38.1541V28.8009C38.7788 28.9062 39.2908 29.0115 39.8131 29.2221C40.3251 29.4328 40.7449 29.6434 41.1546 29.8646L40.1203 31.7814C40.1203 31.7814 40.0179 31.6761 39.9155 31.5708C39.8131 31.4654 39.6083 31.3601 39.4034 31.2548C39.1986 31.1495 38.9938 31.0442 38.6764 30.9388C38.4716 30.8335 38.1644 30.8335 37.9493 30.7282V32.645L38.3589 32.7503C38.8709 32.8557 39.2908 33.0663 39.598 33.1716C40.0076 33.2769 40.3251 33.4876 40.5299 33.6982C40.8371 33.9089 40.9395 34.2248 41.1546 34.5513C41.257 34.8673 41.3594 35.2991 41.3594 35.7204C41.3594 36.247 41.257 36.6788 41.0522 37.1C40.8473 37.5213 40.6425 37.7425 40.3251 38.0584C40.0179 38.2691 39.7004 38.4797 39.2908 38.585C38.8812 38.6904 38.4613 38.7957 38.0517 38.7957V40.386H37.1198V38.6798C36.4952 38.5745 35.8807 38.4692 35.2561 38.2586C34.6314 38.0479 34.1194 37.732 33.5971 37.4055L34.6314 35.3833C34.6314 35.3833 34.7338 35.4887 34.9386 35.594C35.1434 35.6993 35.3482 35.8046 35.5633 35.9099C35.7681 36.0153 36.0753 36.1206 36.3928 36.2259C36.7 36.3312 37.0174 36.4365 37.3246 36.4365V34.5197L36.8126 34.625L36.8024 34.6461Z" fill="url(#paint4_linear_297_38829)"/>
<path d="M39.1883 36.0258C39.1883 35.8151 39.0859 35.6045 38.8811 35.4992C38.6763 35.3938 38.4715 35.2885 38.1541 35.0779V36.7841C38.7787 36.6787 39.1883 36.4681 39.1883 36.0363V36.0258Z" fill="url(#paint5_linear_297_38829)"/>
<path d="M12 61.8606L21.0935 66.0102L22.65 62.3977L13.5463 58.1428L12 61.8606Z" fill="url(#paint6_linear_297_38829)"/>
<path d="M29.0503 10.9387C29.0503 11.1494 29.1527 11.2547 29.2551 11.36C29.3575 11.4653 29.5623 11.5706 29.7671 11.5706V10.2963C29.3575 10.4016 29.04 10.6122 29.04 10.9387H29.0503Z" fill="url(#paint7_linear_297_38829)"/>
<path d="M50.248 15.1936C50.248 15.4042 50.3505 15.5095 50.4529 15.6148C50.5553 15.7202 50.7601 15.8255 51.0775 15.9308V14.4458C50.4529 14.5511 50.248 14.7618 50.248 15.1936Z" fill="url(#paint8_linear_297_38829)"/>
<path d="M51.1696 24.23C54.8869 24.23 57.9897 21.0388 57.9897 17.2157C57.9897 13.3926 54.8869 10.2014 51.1696 10.2014C47.4523 10.2014 44.3495 13.3926 44.3495 17.2157C44.3495 21.0388 47.4523 24.23 51.1696 24.23ZM50.4528 17.8476C50.0432 17.7423 49.7257 17.637 49.4185 17.4263C49.1113 17.321 48.9065 17.1104 48.6914 16.8997C48.4866 16.6891 48.3842 16.4785 48.2818 16.2573C48.1794 16.0466 48.1794 15.7307 48.1794 15.4042C48.1794 14.9829 48.2818 14.6564 48.3842 14.3405C48.4866 14.0245 48.6914 13.698 48.8962 13.4874C49.101 13.2767 49.4083 13.0661 49.7257 12.9608C50.0329 12.8555 50.4528 12.7501 50.76 12.7501V11.5811H51.5895V12.7501C52.1015 12.7501 52.6238 12.9608 53.0334 13.0661C53.443 13.2767 53.8628 13.4874 54.1701 13.5927L53.443 15.2989C53.443 15.2989 53.3406 15.1936 53.2382 15.1936C53.1358 15.0882 53.0334 15.0882 52.8286 14.9829C52.6238 14.8776 52.4189 14.7723 52.2039 14.7723C51.9991 14.667 51.7943 14.667 51.5792 14.5616V16.152L51.9888 16.2573C52.3985 16.3626 52.7159 16.4679 53.0231 16.5732C53.3303 16.6786 53.6478 16.8892 53.8526 17.0998C54.0574 17.3105 54.2622 17.5211 54.3646 17.8476C54.467 18.1636 54.5694 18.4901 54.5694 18.9113C54.5694 19.3326 54.467 19.7644 54.3646 20.0804C54.1598 20.3963 53.955 20.607 53.74 20.8282C53.4327 21.0388 53.2279 21.1441 52.8081 21.2494C52.5009 21.3548 52.081 21.4601 51.7738 21.4601V22.8398H50.9443V21.4601C50.4323 21.4601 49.91 21.2494 49.398 21.1441C48.886 20.9335 48.3637 20.7228 47.9541 20.3963L48.7836 18.6902C48.7836 18.6902 48.886 18.7955 48.9884 18.9008C49.0908 19.0061 49.2956 19.1114 49.5004 19.2168C49.7052 19.3221 49.91 19.4274 50.2275 19.5327C50.5347 19.638 50.7395 19.638 51.057 19.7434V18.153L50.4323 17.8371L50.4528 17.8476Z" fill="url(#paint9_linear_297_38829)"/>
<path d="M52.5214 19.0272C52.5214 18.8166 52.419 18.7113 52.3166 18.5007C52.1118 18.3953 51.9069 18.29 51.6919 18.1847V19.6697C52.2039 19.6697 52.5214 19.4591 52.5214 19.0272Z" fill="url(#paint10_linear_297_38829)"/>
</g>
<defs>
<linearGradient id="paint0_linear_297_38829" x1="30.9411" y1="12.134" x2="29.8727" y2="12.3299" gradientUnits="userSpaceOnUse">
<stop stop-color="#EF9933"/>
<stop offset="0.462092" stop-color="#FDC482"/>
<stop offset="1" stop-color="#C77515"/>
</linearGradient>
<linearGradient id="paint1_linear_297_38829" x1="37.3172" y1="28.6008" x2="35.9376" y2="28.8229" gradientUnits="userSpaceOnUse">
<stop stop-color="#EF9933"/>
<stop offset="0.462092" stop-color="#FDC482"/>
<stop offset="1" stop-color="#C77515"/>
</linearGradient>
<linearGradient id="paint2_linear_297_38829" x1="51.9443" y1="25.7571" x2="11.1411" y2="57.3153" gradientUnits="userSpaceOnUse">
<stop stop-color="#EF9933"/>
<stop offset="0.462092" stop-color="#FDC482"/>
<stop offset="1" stop-color="#C77515"/>
</linearGradient>
<linearGradient id="paint3_linear_297_38829" x1="34.0672" y1="-6.13713" x2="18.6887" y2="-1.72863" gradientUnits="userSpaceOnUse">
<stop stop-color="#EF9933"/>
<stop offset="0.462092" stop-color="#FDC482"/>
<stop offset="1" stop-color="#C77515"/>
</linearGradient>
<linearGradient id="paint4_linear_297_38829" x1="43.7918" y1="6.17472" x2="21.1696" y2="12.6597" gradientUnits="userSpaceOnUse">
<stop stop-color="#EF9933"/>
<stop offset="0.462092" stop-color="#FDC482"/>
<stop offset="1" stop-color="#C77515"/>
</linearGradient>
<linearGradient id="paint5_linear_297_38829" x1="39.0665" y1="33.0873" x2="37.5442" y2="33.3594" gradientUnits="userSpaceOnUse">
<stop stop-color="#EF9933"/>
<stop offset="0.462092" stop-color="#FDC482"/>
<stop offset="1" stop-color="#C77515"/>
</linearGradient>
<linearGradient id="paint6_linear_297_38829" x1="21.3951" y1="48.9642" x2="7.44199" y2="54.533" gradientUnits="userSpaceOnUse">
<stop stop-color="#EF9933"/>
<stop offset="0.462092" stop-color="#FDC482"/>
<stop offset="1" stop-color="#C77515"/>
</linearGradient>
<linearGradient id="paint7_linear_297_38829" x1="29.6814" y1="8.8095" x2="28.6075" y2="8.99015" gradientUnits="userSpaceOnUse">
<stop stop-color="#EF9933"/>
<stop offset="0.462092" stop-color="#FDC482"/>
<stop offset="1" stop-color="#C77515"/>
</linearGradient>
<linearGradient id="paint8_linear_297_38829" x1="50.9798" y1="12.7133" x2="49.7532" y2="12.9153" gradientUnits="userSpaceOnUse">
<stop stop-color="#EF9933"/>
<stop offset="0.462092" stop-color="#FDC482"/>
<stop offset="1" stop-color="#C77515"/>
</linearGradient>
<linearGradient id="paint9_linear_297_38829" x1="56.3824" y1="-6.16524" x2="37.2384" y2="-0.677275" gradientUnits="userSpaceOnUse">
<stop stop-color="#EF9933"/>
<stop offset="0.462092" stop-color="#FDC482"/>
<stop offset="1" stop-color="#C77515"/>
</linearGradient>
<linearGradient id="paint10_linear_297_38829" x1="52.4236" y1="16.4522" x2="51.1971" y2="16.6542" gradientUnits="userSpaceOnUse">
<stop stop-color="#EF9933"/>
<stop offset="0.462092" stop-color="#FDC482"/>
<stop offset="1" stop-color="#C77515"/>
</linearGradient>
<clipPath id="clip0_297_38829">
<rect width="46" height="59" fill="white" transform="translate(12 7.01025)"/>
</clipPath>
</defs>
</svg>
