<svg width="71" height="71" viewBox="0 0 71 71" fill="none" xmlns="http://www.w3.org/2000/svg">
<g clip-path="url(#clip0_297_38847)">
<path d="M64.5 19.6503C64.5 18.059 63.8679 16.5329 62.7426 15.4076C61.6174 14.2824 60.0913 13.6503 58.5 13.6503H46.74C47.7541 12.0874 48.1349 10.1969 47.8052 8.36325C47.4754 6.52958 46.4598 4.8903 44.9648 3.77858C43.4698 2.66686 41.6075 2.16614 39.7566 2.3782C37.9056 2.59026 36.2049 3.49918 35 4.92022C33.8151 3.42501 32.0939 2.45069 30.2021 2.20425C28.3102 1.95782 26.3969 2.45869 24.8684 3.60045C23.34 4.74222 22.317 6.43491 22.0166 8.31893C21.7163 10.203 22.1623 12.1299 23.26 13.6903H11.46C10.0674 13.7405 8.73576 14.2739 7.69354 15.1989C6.65133 16.1238 5.96357 17.3827 5.74831 18.7595C5.53304 20.1362 5.80369 21.545 6.51381 22.744C7.22393 23.9429 8.32923 24.8574 9.64001 25.3303V55.5103C9.64265 56.9682 10.223 58.3656 11.2538 59.3964C12.2847 60.4273 13.6821 61.0076 15.14 61.0103H54.86C56.3179 61.0076 57.7153 60.4273 58.7462 59.3964C59.7771 58.3656 60.3574 56.9682 60.36 55.5103V25.3303C61.5597 24.9391 62.6055 24.1797 63.3488 23.1599C64.092 22.1402 64.4949 20.9121 64.5 19.6503ZM31.5 58.0103V25.6103H38.5V58.0103H31.5ZM31.5 22.6103V16.6903H38.5V22.6103H31.5ZM40.84 5.01023C41.991 5.01023 43.0949 5.46747 43.9089 6.28138C44.7228 7.09529 45.18 8.19919 45.18 9.35022C45.18 10.5013 44.7228 11.6052 43.9089 12.4191C43.0949 13.233 41.991 13.6903 40.84 13.6903H36.5V9.35022C36.5027 8.2 36.9607 7.09764 37.7741 6.28431C38.5874 5.47097 39.6898 5.01288 40.84 5.01023ZM24.84 9.35022C24.84 8.19919 25.2973 7.09529 26.1112 6.28138C26.9251 5.46747 28.029 5.01023 29.18 5.01023C30.331 5.01023 31.4349 5.46747 32.2489 6.28138C33.0628 7.09529 33.52 8.19919 33.52 9.35022V13.6903H29.16C28.0098 13.6876 26.9074 13.2295 26.0941 12.4162C25.2807 11.6029 24.8227 10.5005 24.82 9.35022H24.84ZM8.50001 19.6503C8.50001 18.8546 8.81608 18.0916 9.37869 17.529C9.9413 16.9663 10.7044 16.6503 11.5 16.6503H28.51V22.6103H11.51C10.7195 22.613 9.95989 22.3036 9.39626 21.7493C8.83263 21.195 8.51054 20.4407 8.50001 19.6503ZM12.64 55.5103V25.6103H28.51V58.0103H15.14C14.477 58.0103 13.8411 57.7469 13.3722 57.278C12.9034 56.8092 12.64 56.1733 12.64 55.5103ZM57.36 55.5103C57.36 56.1733 57.0966 56.8092 56.6278 57.278C56.1589 57.7469 55.523 58.0103 54.86 58.0103H41.49V25.6103H57.36V55.5103ZM58.54 22.6103H41.54V16.6903H58.54C59.2415 16.806 59.8792 17.1671 60.3392 17.7092C60.7992 18.2514 61.0517 18.9393 61.0517 19.6503C61.0517 20.3613 60.7992 21.0492 60.3392 21.5913C59.8792 22.1334 59.2415 22.4946 58.54 22.6103Z" fill="url(#paint0_linear_297_38847)"/>
</g>
<defs>
<linearGradient id="paint0_linear_297_38847" x1="57.5685" y1="-66.5358" x2="-24.6398" y2="-42.3166" gradientUnits="userSpaceOnUse">
<stop stop-color="#EF9933"/>
<stop offset="0.462092" stop-color="#FDC482"/>
<stop offset="1" stop-color="#C77515"/>
</linearGradient>
<clipPath id="clip0_297_38847">
<rect width="70" height="70" fill="white" transform="translate(0.5 0.0102539)"/>
</clipPath>
</defs>
</svg>
