<svg width="22" height="17" viewBox="0 0 22 17" fill="none" xmlns="http://www.w3.org/2000/svg">
    <path
        d="M18.7752 1.91915C17.4367 1.305 16.0014 0.852521 14.5007 0.593372C14.4734 0.588372 14.4461 0.600866 14.432 0.625865C14.2474 0.954178 14.043 1.38249 13.8998 1.71914C12.2857 1.47749 10.6799 1.47749 9.09881 1.71914C8.95562 1.37501 8.74374 0.954178 8.55828 0.625865C8.54424 0.601702 8.51694 0.589203 8.4896 0.593372C6.98972 0.851694 5.55441 1.30417 4.21512 1.91915C4.20353 1.92414 4.19359 1.93249 4.18699 1.94331C1.46452 6.01061 0.718722 9.97795 1.08459 13.8961C1.08624 13.9153 1.097 13.9336 1.1119 13.9453C2.90811 15.2644 4.64804 16.0652 6.35569 16.596C6.38299 16.6043 6.41195 16.5944 6.42937 16.5718C6.83331 16.0202 7.19337 15.4386 7.50212 14.8269C7.52032 14.7911 7.5029 14.7486 7.46567 14.7344C6.89456 14.5178 6.3507 14.2536 5.82758 13.9536C5.7862 13.9295 5.78287 13.8703 5.82093 13.842C5.93101 13.7594 6.04113 13.6736 6.14626 13.5869C6.16529 13.5711 6.1918 13.5678 6.21416 13.5778C9.65094 15.1469 13.3717 15.1469 16.7679 13.5778C16.7902 13.5669 16.8168 13.5703 16.8366 13.5861C16.9417 13.6728 17.0518 13.7594 17.1627 13.842C17.2008 13.8703 17.1983 13.9295 17.157 13.9536C16.6338 14.2594 16.09 14.5178 15.518 14.7336C15.4808 14.7478 15.4642 14.7911 15.4824 14.8269C15.7978 15.4377 16.1578 16.0193 16.5543 16.571C16.5709 16.5944 16.6007 16.6043 16.628 16.596C18.3439 16.0652 20.0838 15.2644 21.8801 13.9453C21.8958 13.9336 21.9057 13.9161 21.9074 13.8969C22.3453 9.36711 21.174 5.43233 18.8025 1.94414C18.7967 1.93249 18.7868 1.92414 18.7752 1.91915ZM8.0153 11.5104C6.98062 11.5104 6.12806 10.5604 6.12806 9.3938C6.12806 8.22721 6.96408 7.27727 8.0153 7.27727C9.0748 7.27727 9.91913 8.23552 9.90259 9.3938C9.90259 10.5604 9.06653 11.5104 8.0153 11.5104ZM14.9932 11.5104C13.9585 11.5104 13.106 10.5604 13.106 9.3938C13.106 8.22721 13.942 7.27727 14.9932 7.27727C16.0527 7.27727 16.897 8.23552 16.8805 9.3938C16.8805 10.5604 16.0527 11.5104 14.9932 11.5104Z"
        fill="white" />
</svg>