<svg width="21" height="20" viewBox="0 0 21 20" fill="none" xmlns="http://www.w3.org/2000/svg">
  <path fill-rule="evenodd" clip-rule="evenodd"
    d="M15.8658 0.710938H5.86933C3.12055 0.710938 0.871094 2.77426 0.871094 5.29762V14.471C0.871094 16.9934 3.12055 19.0577 5.86933 19.0577H15.8658C18.6146 19.0577 20.864 16.9934 20.864 14.471V5.29762C20.864 2.77426 18.6146 0.710938 15.8658 0.710938ZM10.8645 13.7065C8.56381 13.7065 6.69922 11.9948 6.69922 9.88445C6.69922 7.77319 8.56381 6.06213 10.8645 6.06213C13.1642 6.06213 15.0298 7.77319 15.0298 9.88445C15.0298 11.9948 13.1642 13.7065 10.8645 13.7065ZM15.0352 4.91577C15.0352 5.5491 15.5942 6.0627 16.2852 6.0627C16.9762 6.0627 17.5352 5.5491 17.5352 4.91577C17.5352 4.28243 16.9762 3.76884 16.2852 3.76884C15.5942 3.76884 15.0352 4.28243 15.0352 4.91577Z"
    fill="white" />
</svg>