<svg width="23" height="18" viewBox="0 0 23 18" fill="none" xmlns="http://www.w3.org/2000/svg">
  <path
    d="M20.3314 4.80414C20.3458 4.98251 20.3458 5.15987 20.3458 5.33722C20.3458 10.7648 15.8441 17.019 7.617 17.019C5.08234 17.019 2.72762 16.3453 0.746094 15.1752C1.10597 15.2129 1.45251 15.2261 1.82682 15.2261C3.91831 15.2261 5.84318 14.5779 7.38153 13.472C5.41445 13.4342 3.76614 12.2519 3.19745 10.6252C3.47402 10.6629 3.7517 10.6884 4.04271 10.6884C4.44368 10.6884 4.84687 10.6374 5.22118 10.5487C3.16968 10.1675 1.63356 8.51528 1.63356 6.51956V6.4686C2.23001 6.77336 2.92199 6.96396 3.65507 6.98944C2.44994 6.25354 1.66022 4.99475 1.66022 3.57083C1.66022 2.80842 1.88125 2.10921 2.26889 1.49969C4.47145 3.98975 7.7825 5.61752 11.4945 5.79589C11.4257 5.49011 11.3834 5.17312 11.3834 4.85511C11.3834 2.59234 13.3783 0.749512 15.8574 0.749512C17.1459 0.749512 18.3088 1.24487 19.1263 2.04602C20.137 1.86764 21.1056 1.52415 21.9653 1.05427C21.6332 2.00728 20.9256 2.80842 19.9982 3.31704C20.899 3.22734 21.772 2.99903 22.5739 2.68102C21.9653 3.49439 21.2044 4.21909 20.3314 4.80414Z"
    fill="white" />
</svg>