<svg width="19" height="16" viewBox="0 0 19 16" fill="none" xmlns="http://www.w3.org/2000/svg">
    <path fill-rule="evenodd" clip-rule="evenodd"
        d="M5.19116 5.39852L5.20084 5.3946L5.81916 5.12415L6.35839 4.88636C9.72603 3.46615 13.107 2.07012 16.5221 0.770765C17.1865 0.549307 18.3805 0.333075 18.4975 1.31755C18.4521 2.30399 18.3067 3.28716 18.1615 4.26837C18.1198 4.54927 18.0782 4.83018 18.039 5.11108L17.9888 5.48279C17.6 8.06321 17.16 10.6358 16.7201 13.2077L16.4817 14.6037C16.3034 15.6156 15.036 16.1389 14.2252 15.4915L12.7879 14.5234C11.6919 13.7865 10.5954 13.0496 9.50813 12.3016C9.13376 12.0442 8.7605 11.7855 8.38871 11.5249C7.75851 10.8847 8.34298 9.96487 8.90577 9.50758C9.55198 8.87065 10.2139 8.27291 10.8735 7.67647L10.882 7.66863C11.8578 6.78672 12.8281 5.91003 13.7342 4.91837C14.1185 3.99073 13.0796 4.66425 12.6177 4.96345L12.5323 5.01832C11.9957 5.38807 11.4623 5.7637 10.9288 6.13933L10.9119 6.15109C9.26638 7.30933 7.61965 8.46823 5.87461 9.47035C4.81235 10.055 3.59229 9.66633 2.4981 9.31748L2.39399 9.28482L2.12917 9.20185C1.98369 9.1411 1.82895 9.081 1.67258 9.02024C0.688711 8.63678 -0.359908 8.22848 0.429078 7.65034C1.93711 6.82003 3.58596 6.09948 5.19116 5.39852Z"
        fill="white" />
</svg>